<svg width="34" height="33" viewBox="0 0 34 33" fill="none" xmlns="http://www.w3.org/2000/svg">
<path d="M32.7432 15.3093C33.5969 14.4776 33.8981 13.257 33.5297 12.1244C33.1619 10.9913 32.2008 10.181 31.0214 10.0096L23.7394 8.95151C23.3697 8.89756 23.0503 8.66553 22.885 8.33079L19.6284 1.73158C19.1011 0.663487 18.0334 0 16.842 0C15.6507 0 14.583 0.663487 14.0557 1.73158L10.7991 8.33072C10.6338 8.66559 10.3144 8.89763 9.94534 8.95145L2.66284 10.0095C1.48336 10.181 0.522246 10.9913 0.15468 12.1238C-0.213938 13.257 0.0873119 14.4777 0.940667 15.3091L6.21027 20.4462C6.47758 20.7066 6.59955 21.0818 6.53659 21.4494L5.29238 28.703C5.09132 29.8773 5.56494 31.0416 6.52843 31.7415C7.49211 32.4417 8.74606 32.5324 9.80106 31.9783L16.3144 28.5538C16.6447 28.3802 17.0393 28.3803 17.3694 28.5536L23.8832 31.9783C24.9382 32.5325 26.1921 32.4417 27.1558 31.7415C28.1192 31.0416 28.5929 29.8773 28.3919 28.703L27.1476 21.4497C27.0846 21.0818 27.2065 20.7066 27.474 20.446L32.7432 15.3093Z" fill="#336AEA"/>
</svg>
