<svg width="29" height="38" viewBox="0 0 29 38" fill="none" xmlns="http://www.w3.org/2000/svg">
<path d="M18.6969 27.253C20.0507 26.8137 20.5435 24.6643 21.6716 23.839C22.8116 23.0137 25.0084 23.2037 25.8397 22.0637C26.659 20.9356 25.804 18.9109 26.2434 17.5513C26.6709 16.245 28.5649 15.1169 28.5649 13.6682C28.5649 12.2195 26.6709 11.0854 26.2434 9.77919C25.804 8.42546 26.659 6.39486 25.8397 5.27269C25.0084 4.1327 22.8116 4.31676 21.6716 3.49146C20.5494 2.6721 20.0507 0.516813 18.6969 0.0774438C17.3907 -0.344113 15.7342 1.09274 14.2854 1.09274C12.8367 1.09274 11.1742 -0.344113 9.86799 0.0774438C8.51426 0.516813 8.02146 2.6721 6.89335 3.49146C5.75336 4.31676 3.55652 4.1327 2.72528 5.26675C1.90591 6.39486 2.7609 8.42546 2.32153 9.77919C1.89404 11.0854 0 12.2195 0 13.6682C0 15.1169 1.89404 16.245 2.32153 17.5513C2.7609 18.9109 1.90591 20.9356 2.72528 22.0637C3.55652 23.1978 5.75336 23.0137 6.89335 23.839C8.01552 24.6643 8.51426 26.8137 9.86799 27.253C11.1742 27.6746 12.8308 26.2437 14.2854 26.2437C15.7282 26.2437 17.3907 27.6746 18.6969 27.253ZM14.2795 22.1409C9.59487 22.1409 5.8068 18.341 5.8068 13.6682C5.8068 8.98358 9.60081 5.1955 14.2795 5.1955C18.9582 5.1955 22.7463 8.98951 22.7463 13.6682C22.7522 18.3469 18.9582 22.1409 14.2795 22.1409Z" fill="#336AEA"/>
<path d="M22.0871 24.4146C21.719 24.6877 21.3984 25.2162 21.054 25.7743C20.5315 26.6293 19.9378 27.5971 18.9166 27.9296C18.685 28.0067 18.4356 28.0424 18.1803 28.0424C17.4381 28.0424 16.7078 27.7455 16.0013 27.4546C15.8469 27.3893 15.6866 27.3299 15.5322 27.2705L17.8241 37.9994L21.7606 33.386L27.3893 34.2826L22.8293 24.0762C22.5324 24.1712 22.2771 24.278 22.0871 24.4146Z" fill="#336AEA"/>
<path d="M10.3779 28.0424C10.1226 28.0424 9.87321 28.0067 9.64165 27.9296C8.62041 27.5971 8.02073 26.6233 7.49824 25.7683C7.15387 25.2102 6.83325 24.6877 6.46513 24.4146C6.27513 24.278 6.01388 24.1712 5.72889 24.0762L1.16895 34.2826L6.79762 33.386L10.7282 37.9994L13.026 27.2705C12.8657 27.3299 12.7113 27.3893 12.551 27.4546C11.8563 27.7455 11.1201 28.0424 10.3779 28.0424Z" fill="#336AEA"/>
<path d="M20.4192 11.6739L16.1799 11.0564L14.2799 7.20898L12.3799 11.0564L8.14062 11.6739L11.2103 14.6664L10.4859 18.8938L14.2799 16.8929L18.0739 18.8938L17.3496 14.6664L20.4192 11.6739Z" fill="#336AEA"/>
</svg>
