<svg width="40" height="40" viewBox="0 0 40 40" fill="none" xmlns="http://www.w3.org/2000/svg">
<path d="M24.6969 28.253C26.0507 27.8137 26.5435 25.6643 27.6716 24.839C28.8116 24.0137 31.0084 24.2037 31.8397 23.0637C32.659 21.9356 31.804 19.9109 32.2434 18.5513C32.6709 17.245 34.5649 16.1169 34.5649 14.6682C34.5649 13.2195 32.6709 12.0854 32.2434 10.7792C31.804 9.42546 32.659 7.39486 31.8397 6.27269C31.0084 5.1327 28.8116 5.31676 27.6716 4.49146C26.5494 3.6721 26.0507 1.51681 24.6969 1.07744C23.3907 0.655887 21.7342 2.09274 20.2854 2.09274C18.8367 2.09274 17.1742 0.655887 15.868 1.07744C14.5143 1.51681 14.0215 3.6721 12.8933 4.49146C11.7534 5.31676 9.55652 5.1327 8.72528 6.26675C7.90591 7.39486 8.7609 9.42546 8.32153 10.7792C7.89404 12.0854 6 13.2195 6 14.6682C6 16.1169 7.89404 17.245 8.32153 18.5513C8.7609 19.9109 7.90591 21.9356 8.72528 23.0637C9.55652 24.1978 11.7534 24.0137 12.8933 24.839C14.0155 25.6643 14.5143 27.8137 15.868 28.253C17.1742 28.6746 18.8308 27.2437 20.2854 27.2437C21.7282 27.2437 23.3907 28.6746 24.6969 28.253ZM20.2795 23.1409C15.5949 23.1409 11.8068 19.341 11.8068 14.6682C11.8068 9.98358 15.6008 6.1955 20.2795 6.1955C24.9582 6.1955 28.7463 9.98951 28.7463 14.6682C28.7522 19.3469 24.9582 23.1409 20.2795 23.1409Z" fill="#336AEA"/>
<path d="M28.0871 25.4146C27.719 25.6877 27.3984 26.2162 27.054 26.7743C26.5315 27.6293 25.9378 28.5971 24.9166 28.9296C24.685 29.0067 24.4356 29.0424 24.1803 29.0424C23.4381 29.0424 22.7078 28.7455 22.0013 28.4546C21.8469 28.3893 21.6866 28.3299 21.5322 28.2705L23.8241 38.9994L27.7606 34.386L33.3893 35.2826L28.8293 25.0762C28.5324 25.1712 28.2771 25.278 28.0871 25.4146Z" fill="#336AEA"/>
<path d="M16.3779 29.0424C16.1226 29.0424 15.8732 29.0067 15.6416 28.9296C14.6204 28.5971 14.0207 27.6233 13.4982 26.7683C13.1539 26.2102 12.8332 25.6877 12.4651 25.4146C12.2751 25.278 12.0139 25.1712 11.7289 25.0762L7.16895 35.2826L12.7976 34.386L16.7282 38.9994L19.026 28.2705C18.8657 28.3299 18.7113 28.3893 18.551 28.4546C17.8563 28.7455 17.1201 29.0424 16.3779 29.0424Z" fill="#336AEA"/>
<path d="M26.4192 12.6739L22.1799 12.0564L20.2799 8.20898L18.3799 12.0564L14.1406 12.6739L17.2103 15.6664L16.4859 19.8938L20.2799 17.8929L24.0739 19.8938L23.3496 15.6664L26.4192 12.6739Z" fill="#336AEA"/>
</svg>
