<svg width="20" height="20" viewBox="0 0 20 20" fill="none" xmlns="http://www.w3.org/2000/svg">
<path d="M18.3333 6.89102V3.52435C18.3333 2.19935 17.8 1.66602 16.475 1.66602H13.1083C11.7833 1.66602 11.25 2.19935 11.25 3.52435V6.89102C11.25 8.21602 11.7833 8.74935 13.1083 8.74935H16.475C17.8 8.74935 18.3333 8.21602 18.3333 6.89102Z" stroke="#336AEA" stroke-width="1.5" stroke-linecap="round" stroke-linejoin="round"/>
<path d="M8.75033 7.09935V3.31602C8.75033 2.14102 8.21699 1.66602 6.89199 1.66602H3.52533C2.20033 1.66602 1.66699 2.14102 1.66699 3.31602V7.09102C1.66699 8.27435 2.20033 8.74102 3.52533 8.74102H6.89199C8.21699 8.74935 8.75033 8.27435 8.75033 7.09935Z" stroke="#336AEA" stroke-width="1.5" stroke-linecap="round" stroke-linejoin="round"/>
<path d="M8.75033 16.475V13.1083C8.75033 11.7833 8.21699 11.25 6.89199 11.25H3.52533C2.20033 11.25 1.66699 11.7833 1.66699 13.1083V16.475C1.66699 17.8 2.20033 18.3333 3.52533 18.3333H6.89199C8.21699 18.3333 8.75033 17.8 8.75033 16.475Z" stroke="#336AEA" stroke-width="1.5" stroke-linecap="round" stroke-linejoin="round"/>
<path d="M12.5 12.916H17.5" stroke="#336AEA" stroke-width="1.5" stroke-linecap="round"/>
<path d="M12.5 16.25H17.5" stroke="#336AEA" stroke-width="1.5" stroke-linecap="round"/>
</svg>
