<svg width="40" height="40" viewBox="0 0 40 40" fill="none" xmlns="http://www.w3.org/2000/svg">
<path d="M37.6179 1.82349C30.5194 1.69621 22.4239 5.40682 17.2997 11.1629C12.4027 11.2553 7.63455 13.2629 4.12395 16.7735C3.9194 16.975 3.84667 17.2765 3.93607 17.5492C4.02698 17.8235 4.26334 18.022 4.54819 18.0629L10.3876 18.8992L9.66637 19.7068C9.39819 20.0068 9.41183 20.4629 9.69667 20.7477L19.4346 30.4856C19.5815 30.6326 19.7755 30.7068 19.9709 30.7068C20.1512 30.7068 20.3315 30.6432 20.4755 30.5144L21.283 29.7932L22.1194 35.6326C22.1603 35.9174 22.3846 36.1265 22.6558 36.2174C22.7255 36.2402 22.7982 36.2508 22.8724 36.2508C23.0876 36.2508 23.3073 36.1568 23.4588 36.0068C26.9209 32.5447 28.9285 27.7765 29.0209 22.8795C34.783 17.7447 38.5239 9.65227 38.3588 2.56288C38.3482 2.15985 38.0224 1.83409 37.6179 1.82349ZM30.6361 14.9023C29.8982 15.6402 28.9285 16.0099 27.9573 16.0099C26.9861 16.0099 26.0164 15.6402 25.2785 14.9023C23.8027 13.425 23.8027 11.022 25.2785 9.5447C26.7558 8.06743 29.1588 8.06743 30.6361 9.5447C32.1133 11.022 32.1133 13.4265 30.6361 14.9023Z" fill="#336AEA"/>
<path d="M6.12736 27.4312C4.50615 29.0525 2.28039 36.3767 2.03191 37.2055C1.9516 37.4722 2.02584 37.7616 2.2213 37.9585C2.36675 38.104 2.55918 38.1812 2.75766 38.1812C2.83039 38.1812 2.90312 38.1706 2.97584 38.1494C3.80463 37.9009 11.1289 35.6752 12.7501 34.054C14.5758 32.2282 14.5758 29.257 12.7501 27.4312C10.9228 25.6055 7.95312 25.607 6.12736 27.4312Z" fill="#336AEA"/>
</svg>
