<svg width="20" height="20" viewBox="0 0 20 20" fill="none" xmlns="http://www.w3.org/2000/svg">
<path d="M18.0002 18.0005V12.1405C18.0002 9.26055 17.3802 7.06055 14.0202 7.06055C12.4002 7.06055 11.3202 7.94055 10.8802 8.78055H10.8402V7.32055L7.66016 7.32055L7.66016 18.0005H10.9802L10.9802 12.7005C10.9802 11.3005 11.2402 9.96055 12.9602 9.96055C14.6602 9.96055 14.6802 11.5405 14.6802 12.7805L14.6802 17.9805H18.0002V18.0005Z" fill="white"/>
<path d="M2.25977 7.32031L5.57977 7.32031L5.57977 18.0003H2.25977L2.25977 7.32031Z" fill="white"/>
<path d="M3.92 2C2.86 2 2 2.86 2 3.92C2 4.98 2.86 5.86 3.92 5.86C4.98 5.86 5.84 4.98 5.84 3.92C5.84 2.86 4.98 2 3.92 2Z" fill="white"/>
</svg>
