<svg width="20" height="20" viewBox="0 0 20 20" fill="none" xmlns="http://www.w3.org/2000/svg">
<path d="M14.9558 6.24387C13.0863 6.24387 11.6753 7.47843 11.111 9.41847C10.2291 8.04281 9.52366 6.49078 9.13565 5.15039H7.16034L7.16034 10.3356C7.16034 11.3585 6.31378 12.2051 5.29085 12.2051C4.26792 12.2051 3.42136 11.3585 3.42136 10.3356L3.42136 5.18566H1.5166L1.5166 10.3708C1.5166 12.5225 3.245 14.2509 5.3614 14.2509C7.4778 14.2509 9.2062 12.5225 9.2062 10.3708V9.48901C9.5942 10.265 10.088 11.1116 10.6171 11.8523L9.38256 17.6019H11.3931L12.2397 13.4044C13.0157 13.8982 13.8976 14.1804 14.9558 14.1804C17.1074 14.1804 18.8711 12.4167 18.8711 10.1592C18.8711 8.00753 17.1074 6.24387 14.9558 6.24387ZM14.9558 12.2051C14.1797 12.2051 13.3685 11.8523 12.7335 11.3232L12.9452 10.5472V10.5119C13.0863 9.66538 13.5448 8.25445 14.991 8.25445C16.0845 8.25445 16.9663 9.13628 16.9663 10.2298C16.9311 11.3232 15.9787 12.2051 14.9558 12.2051Z" fill="white"/>
</svg>
